# File created by Blade
# Date/Time:  Fri Jan 16 17:45:47 2015
#---------------------------------------------------------
:version 1.10
:name HOM
:units
  mass 1.0
  length 1.000000
  angle deg
:documentation
     Acclaim Skeleton File
:root
   axis xyz
   order TX TY TZ RX RY RZ
   position 0.000000 0.000000 0.000000
   orientation 0 0 0
:bonedata
   begin
      id 1
      name Spine_dum
      direction 0.000000 1.000000 0.000000
      length 7.170412
      axis 0.0 0.0 0.0 xyz
   end
   begin
      id 2
      name LeftUpLeg_dum
      direction 1.000000 0.000000 0.000000
      length 4.318350
      axis 0.0 0.0 0.0 xyz
   end
   begin
      id 3
      name RightUpLeg_dum
      direction -1.000000 0.000000 0.000000
      length 4.318350
      axis 0.0 0.0 0.0 xyz
   end
   begin
      id 4
      name Spine
      direction 0.000000 1.000000 0.000000
      length 0.000000
      axis 0.0 0.0 0.0 xyz
      dof rx ry rz
   end
   begin
      id 5
      name Spine_dum1
      direction 0.000000 1.000000 0.000000
      length 14.276153
      axis 0.0 0.0 0.0 xyz
   end
   begin
      id 6
      name Spine_dum2
      direction 0.000000 1.000000 0.000000
      length 10.718243
      axis 0.0 0.0 0.0 xyz
   end
   begin
      id 7
      name Spine_dum3
      direction 0.000000 1.000000 0.000000
      length 10.718243
      axis 0.0 0.0 0.0 xyz
   end
   begin
      id 8
      name Head
      direction 0.000000 1.000000 0.000000
      length 4.527550
      axis 0.0 0.0 0.0 xyz
      dof rx ry rz
   end
   begin
      id 9
      name LeftShoulder
      direction 1.000000 0.000000 0.000000
      length 7.058872
      axis 0.0 0.0 -90.0 xyz
      dof rx ry rz
   end
   begin
      id 10
      name LeftArm
      direction 1.000000 0.000000 0.000000
      length 10.955525
      axis 0.0 0.0 -90.0 xyz
      dof rx ry rz
   end
   begin
      id 11
      name LeftForeArm
      direction 1.000000 0.000000 0.000000
      length 8.193716
      axis 0.0 0.0 -90.0 xyz
      dof ry rz rx
   end
   begin
      id 12
      name LeftHand
      direction 0.000000 0.000000 0.000000
      length 0.000000
      axis 0.0 0.0 -90.0 xyz
      dof rx ry rz
   end
   begin
      id 13
      name LeftHand_dum1
      direction 0.000000 0.000000 0.000000
      length 0.000000
      axis 0.0 0.0 -90.0 xyz
   end
   begin
      id 14
      name LeftHand_dum2
      direction 1.000000 0.000000 0.000000
      length 3.937000
      axis 0.0 0.0 -90.0 xyz
   end
   begin
      id 15
      name LeftHandThumb1
      direction 0.000000 0.000000 1.000000
      length 3.937000
      axis 0.0 0.0 -90.0 xyz
      dof rx rz ry
   end
   begin
      id 16
      name RightShoulder
      direction -1.000000 0.000000 0.000000
      length 7.058872
      axis 0.0 0.0 90.0 xyz
      dof rx ry rz
   end
   begin
      id 17
      name RightArm
      direction -1.000000 0.000000 0.000000
      length 10.955525
      axis 0.0 0.0 90.0 xyz
      dof rx ry rz
   end
   begin
      id 18
      name RightForeArm
      direction -1.000000 0.000000 0.000000
      length 8.193716
      axis 0.0 0.0 90.0 xyz
      dof ry rz rx
   end
   begin
      id 19
      name RightHand
      direction 0.000000 0.000000 0.000000
      length 0.000000
      axis 0.0 0.0 90.0 xyz
      dof rx ry rz
   end
   begin
      id 20
      name RightHand_dum1
      direction 0.000000 0.000000 0.000000
      length 0.000000
      axis 0.0 0.0 90.0 xyz
   end
   begin
      id 21
      name RightHand_dum2
      direction -1.000000 0.000000 0.000000
      length 3.937000
      axis 0.0 0.0 90.0 xyz
   end
   begin
      id 22
      name RightHandThumb1
      direction 0.000000 0.000000 1.000000
      length 3.937000
      axis 0.0 0.0 90.0 xyz
      dof rx rz ry
   end
   begin
      id 23
      name LeftUpLeg
      direction 0.000000 -1.000000 0.000000
      length 17.323638
      axis 0.0 0.0 0.0 xyz
      dof rx ry rz
   end
   begin
      id 24
      name LeftLeg
      direction 0.000000 -1.000000 0.000000
      length 16.270368
      axis 0.0 0.0 0.0 xyz
      dof rx ry rz
   end
   begin
      id 25
      name LeftFoot
      direction 0.000000 -0.258819 0.965926
      length 4.922846
      axis 15.0 0.0 0.0 xyz
      dof rx ry rz
   end
   begin
      id 26
      name LeftToeBase
      direction 0.000000 0.000000 1.000000
      length 2.952750
      axis 0.0 0.0 0.0 xyz
      dof rx ry rz
   end
   begin
      id 27
      name RightUpLeg
      direction 0.000000 -1.000000 0.000000
      length 17.323638
      axis 0.0 0.0 0.0 xyz
      dof rx ry rz
   end
   begin
      id 28
      name RightLeg
      direction 0.000000 -1.000000 0.000000
      length 16.270368
      axis 0.0 0.0 0.0 xyz
      dof rx ry rz
   end
   begin
      id 29
      name RightFoot
      direction 0.000000 -0.258819 0.965926
      length 4.922846
      axis 15.0 0.0 0.0 xyz
      dof rx ry rz
   end
   begin
      id 30
      name RightToeBase
      direction 0.000000 0.000000 1.000000
      length 2.952750
      axis 0.0 0.0 0.0 xyz
      dof rx ry rz
   end
:hierarchy
   begin
      root Spine_dum LeftUpLeg_dum RightUpLeg_dum
      Spine_dum Spine
      LeftUpLeg_dum LeftUpLeg
      RightUpLeg_dum RightUpLeg
      Spine Spine_dum1 Spine_dum2 Spine_dum3
      Spine_dum1 Head
      Spine_dum2 LeftShoulder
      Spine_dum3 RightShoulder
      LeftShoulder LeftArm
      LeftArm LeftForeArm
      LeftForeArm LeftHand
      LeftHand LeftHand_dum1 LeftHand_dum2
      LeftHand_dum1 LeftHandThumb1
      RightShoulder RightArm
      RightArm RightForeArm
      RightForeArm RightHand
      RightHand RightHand_dum1 RightHand_dum2
      RightHand_dum1 RightHandThumb1
      LeftUpLeg LeftLeg
      LeftLeg LeftFoot
      LeftFoot LeftToeBase
      RightUpLeg RightLeg
      RightLeg RightFoot
      RightFoot RightToeBase
   end

# File created by Blade
# Date/Time:  Fri Jan 16 17:45:28 2015
# Frame Rate: 120.000 fps
#------------------------------------------------------
:FULLY-SPECIFIED
:DEGREES
417
root -5.386790 35.260790 -10.163474 -2.165794 -5.936535 -5.745753
Spine 1.013043 3.162417 11.151343
Head 3.011690 3.326813 -9.235258
LeftShoulder -20.049085 13.863171 -17.006959
LeftArm 18.333747 -0.939393 -76.518972
LeftForeArm 4.863592 -0.000000 11.428861
LeftHand 2.099848 -0.000000 -5.628667
LeftHandThumb1 -26.253704 0.000000 33.147579
RightShoulder 0.795454 -1.891530 2.971352
RightArm 15.311965 -42.374042 57.980178
RightForeArm -14.581040 -0.000000 107.250942
RightHand 7.947230 0.000000 9.512145
RightHandThumb1 -24.326973 -0.000000 -32.862282
LeftUpLeg 12.076666 15.372397 7.200626
LeftLeg -9.332243 -0.000000 0.000000
LeftFoot -15.008592 27.022850 -8.655609
LeftToeBase 22.647723 -0.000000 -0.000000
RightUpLeg 8.409947 -4.104072 3.931417
RightLeg -4.702820 -0.000000 0.000000
RightFoot -3.802062 -27.241054 3.431549
RightToeBase 13.616244 -0.000000 -0.000000
418
root -5.384945 35.261392 -10.165660 -2.186513 -5.943320 -5.742544
Spine 1.046706 3.162158 11.149170
Head 3.014619 3.337347 -9.245630
LeftShoulder -20.013810 13.857390 -16.999547
LeftArm 18.331366 -0.907401 -76.512141
LeftForeArm 4.863358 -0.000000 11.438167
LeftHand 2.056363 0.000000 -5.643827
LeftHandThumb1 -26.253704 0.000000 33.147579
RightShoulder 0.768889 -1.904547 2.980992
RightArm 15.292681 -42.342486 57.954677
RightForeArm -14.575225 -0.000000 106.258755
RightHand 7.953572 0.000000 9.351123
RightHandThumb1 -24.326973 -0.000000 -32.862282
LeftUpLeg 12.088646 15.365586 7.198694
LeftLeg -9.317466 -0.000000 0.000000
LeftFoot -15.012145 27.026129 -8.666274
LeftToeBase 22.614053 -0.000000 -0.000000
RightUpLeg 8.425649 -4.093148 3.924498
RightLeg -4.703752 -0.000000 0.000000
RightFoot -3.792468 -27.240999 3.430297
RightToeBase 13.639319 -0.000000 -0.000000
419
root -5.383883 35.261870 -10.167734 -2.191212 -5.958471 -5.741576
Spine 1.052659 3.150512 11.142080
Head 3.029012 3.363973 -9.244696
LeftShoulder -20.008862 13.844320 -16.992656
LeftArm 18.323201 -0.896031 -76.512672
LeftForeArm 4.879493 -0.000000 11.440909
LeftHand 2.052636 -0.000000 -5.653852
LeftHandThumb1 -26.253704 0.000000 33.147579
RightShoulder 0.774244 -1.912882 2.984322
RightArm 15.236018 -42.290201 57.980055
RightForeArm -14.341303 -0.000000 105.123825
RightHand 7.959180 -0.000000 9.380090
RightHandThumb1 -24.326973 -0.000000 -32.862282
LeftUpLeg 12.092047 15.385376 7.196883
LeftLeg -9.316018 -0.000000 0.000000
LeftFoot -14.994775 26.993571 -8.744731
LeftToeBase 22.450227 -0.000000 -0.000000
RightUpLeg 8.422908 -4.074815 3.924157
RightLeg -4.700304 -0.000000 0.000000
RightFoot -3.789172 -27.251390 3.438801
RightToeBase 13.649828 -0.000000 -0.000000
420
root -5.382217 35.262301 -10.170242 -2.195247 -5.973263 -5.735405
Spine 1.052911 3.144500 11.126446
Head 3.053368 3.391273 -9.232427
LeftShoulder -19.997410 13.833661 -16.982686
LeftArm 18.317387 -0.889155 -76.516503
LeftForeArm 4.890439 -0.000000 11.433998
LeftHand 2.029407 -0.000000 -5.676231
LeftHandThumb1 -26.253704 0.000000 33.147579
RightShoulder 0.777371 -1.922455 3.013649
RightArm 15.112807 -42.138784 58.087778
RightForeArm -14.174382 -0.000000 103.867360
RightHand 7.999534 -0.000000 9.475831
RightHandThumb1 -24.326973 -0.000000 -32.862282
LeftUpLeg 12.092528 15.375957 7.185469
LeftLeg -9.305388 -0.000000 0.000000
LeftFoot -15.004028 27.002660 -8.806568
LeftToeBase 22.411087 -0.000000 -0.000000
RightUpLeg 8.415893 -4.066985 3.915584
RightLeg -4.690626 -0.000000 0.000000
RightFoot -3.779890 -27.244248 3.431510
RightToeBase 13.594730 -0.000000 -0.000000
421
root -5.381119 35.262027 -10.172738 -2.197043 -5.982335 -5.740524
Spine 1.058218 3.157710 11.124925
Head 3.058396 3.376099 -9.223881
LeftShoulder -19.978676 13.841067 -16.976896
LeftArm 18.334547 -0.856825 -76.510471
LeftForeArm 4.900675 -0.000000 11.430896
LeftHand 2.012567 0.000000 -5.719570
LeftHandThumb1 -26.253704 0.000000 33.147579
RightShoulder 0.724468 -1.927512 3.035938
RightArm 15.129002 -42.070214 58.031268
RightForeArm -13.875211 -0.000000 102.466844
RightHand 7.955712 -0.000000 9.455821
RightHandThumb1 -24.326973 -0.000000 -32.862282
LeftUpLeg 12.091278 15.401979 7.194698
LeftLeg -9.306001 -0.000000 0.000000
LeftFoot -15.022959 27.024492 -8.682660
LeftToeBase 22.670162 -0.000000 -0.000000
RightUpLeg 8.409619 -4.063558 3.918133
RightLeg -4.680085 -0.000000 0.000000
RightFoot -3.784912 -27.236349 3.411322
RightToeBase 13.644103 -0.000000 -0.000000
422
root -5.380175 35.262214 -10.175099 -2.191890 -5.997921 -5.746700
Spine 1.041145 3.144813 11.121617
Head 3.095043 3.392389 -9.211457
LeftShoulder -19.975953 13.835937 -16.970125
LeftArm 18.321326 -0.888321 -76.533323
LeftForeArm 4.974752 -0.000000 11.438675
LeftHand 2.011366 -0.000000 -5.714608
LeftHandThumb1 -26.253704 0.000000 33.147579
RightShoulder 0.723734 -1.957180 3.067989
RightArm 15.132951 -41.929965 57.983891
RightForeArm -13.591253 -0.000000 100.907271
RightHand 8.125604 -0.000000 9.502392
RightHandThumb1 -24.326973 -0.000000 -32.862282
LeftUpLeg 12.086012 15.422722 7.199625
LeftLeg -9.306688 -0.000000 0.000000
LeftFoot -15.022317 27.025521 -8.656139
LeftToeBase 22.684816 -0.000000 -0.000000
RightUpLeg 8.396074 -4.042459 3.927079
RightLeg -4.674839 -0.000000 0.000000
RightFoot -3.780883 -27.256785 3.422868
RightToeBase 13.625747 -0.000000 -0.000000
423
root -5.376538 35.263009 -10.177490 -2.208128 -5.998256 -5.736308
Spine 1.048470 3.105853 11.102896
Head 3.117920 3.420372 -9.193494
LeftShoulder -19.962701 13.831068 -16.971972
LeftArm 18.316979 -0.891473 -76.536439
LeftForeArm 4.949754 0.000000 11.434036
LeftHand 2.022821 -0.000000 -5.708853
LeftHandThumb1 -26.253704 0.000000 33.147579
RightShoulder 0.717419 -1.997340 3.127627
RightArm 15.230096 -41.800783 57.810365
RightForeArm -13.104571 -0.000000 99.256359
RightHand 8.117945 -0.000000 9.543344
RightHandThumb1 -24.326973 -0.000000 -32.862282
LeftUpLeg 12.096154 15.407770 7.184458
LeftLeg -9.304271 -0.000000 0.000000
LeftFoot -15.029332 27.035271 -8.696294
LeftToeBase 22.687611 -0.000000 -0.000000
RightUpLeg 8.406325 -4.048323 3.908008
RightLeg -4.673716 -0.000000 0.000000
RightFoot -3.765456 -27.245960 3.413108
RightToeBase 13.639102 -0.000000 -0.000000
424
root -5.375168 35.263409 -10.179782 -2.216465 -5.994638 -5.735014
Spine 1.045581 3.093497 11.092477
Head 3.147595 3.411059 -9.185990
LeftShoulder -19.944560 13.827464 -16.967007
LeftArm 18.316570 -0.848615 -76.521475
LeftForeArm 4.906861 -0.000000 11.428630
LeftHand 1.999218 -0.000000 -5.758145
LeftHandThumb1 -26.253704 0.000000 33.147579
RightShoulder 0.693505 -1.984553 3.159408
RightArm 15.160780 -41.597914 57.877031
RightForeArm -12.726035 -0.000000 97.474491
RightHand 8.129117 -0.000000 9.795758
RightHandThumb1 -24.326973 -0.000000 -32.862282
LeftUpLeg 12.092838 15.404460 7.180797
LeftLeg -9.291262 -0.000000 0.000000
LeftFoot -15.022123 27.034484 -8.689077
LeftToeBase 22.624893 -0.000000 -0.000000
RightUpLeg 8.409204 -4.059945 3.903285
RightLeg -4.670216 -0.000000 0.000000
RightFoot -3.772664 -27.231979 3.436000
RightToeBase 13.620444 -0.000000 -0.000000
425
root -5.373100 35.263188 -10.181538 -2.210742 -5.990372 -5.724851
Spine 1.018220 3.083035 11.064541
Head 3.181566 3.378531 -9.160278
LeftShoulder -19.931512 13.831268 -16.954707
LeftArm 18.310708 -0.827679 -76.520832
LeftForeArm 4.913838 0.000000 11.427154
LeftHand 2.060231 -0.000000 -5.686174
LeftHandThumb1 -26.253704 0.000000 33.147579
RightShoulder 0.647148 -2.033137 3.234053
RightArm 15.309923 -41.455440 57.673009
RightForeArm -12.418929 0.000000 95.585115
RightHand 8.165865 -0.000000 9.888109
RightHandThumb1 -24.326973 -0.000000 -32.862282
LeftUpLeg 12.080859 15.420805 7.168062
LeftLeg -9.288218 -0.000000 0.000000
LeftFoot -15.002534 26.985434 -8.756784
LeftToeBase 22.467981 -0.000000 -0.000000
RightUpLeg 8.408023 -4.053181 3.890121
RightLeg -4.687556 -0.000000 0.000000
RightFoot -3.763469 -27.230528 3.441655
RightToeBase 13.598273 -0.000000 -0.000000
426
root -5.369191 35.263522 -10.185094 -2.208084 -5.973481 -5.730624
Spine 0.997869 3.043064 11.073411
Head 3.211209 3.373892 -9.169510
LeftShoulder -19.910625 13.831456 -16.962354
LeftArm 18.296880 -0.828061 -76.527335
LeftForeArm 4.942244 -0.000000 11.436791
LeftHand 2.075228 -0.000000 -5.673730
LeftHandThumb1 -26.253704 0.000000 33.147579
RightShoulder 0.628428 -2.011755 3.278652
RightArm 15.502261 -41.452185 57.370069
RightForeArm -12.123567 -0.000000 93.583370
RightHand 8.115812 0.000000 9.771381
RightHandThumb1 -24.326973 -0.000000 -32.862282
LeftUpLeg 12.061186 15.395264 7.160649
LeftLeg -9.276055 -0.000000 0.000000
LeftFoot -15.027296 27.028381 -8.678623
LeftToeBase 22.632738 -0.000000 -0.000000
RightUpLeg 8.397702 -4.071111 3.888541
RightLeg -4.682007 -0.000000 0.000000
RightFoot -3.761592 -27.224524 3.450484
RightToeBase 13.609897 -0.000000 -0.000000
427
root -5.365104 35.263482 -10.191421 -2.176922 -5.956046 -5.726904
Spine 0.949948 3.016555 11.067577
Head 3.229853 3.372946 -9.171382
LeftShoulder -19.907832 13.840738 -16.980240
LeftArm 18.310745 -0.784903 -76.510603
LeftForeArm 4.939483 -0.000000 11.438698
LeftHand 2.046797 0.000000 -5.681715
LeftHandThumb1 -26.253704 0.000000 33.147579
RightShoulder 0.594453 -2.013810 3.317897
RightArm 15.676995 -41.407685 57.171426
RightForeArm -11.958210 -0.000000 91.428955
RightHand 8.144434 -0.000000 9.612583
RightHandThumb1 -24.326973 -0.000000 -32.862282
LeftUpLeg 12.004746 15.372881 7.135372
LeftLeg -9.263139 -0.000000 0.000000
LeftFoot -15.038324 27.050448 -8.665158
LeftToeBase 22.671700 -0.000000 -0.000000
RightUpLeg 8.352192 -4.084619 3.880965
RightLeg -4.673603 -0.000000 0.000000
RightFoot -3.758415 -27.219849 3.444600
RightToeBase 13.603974 -0.000000 -0.000000
